<svg viewBox="0 0 32 32" xmlns="http://www.w3.org/2000/svg" width="32" height="32" fill="none"><path fill="#fff" d="M0 0h32v32H0z"/><path fill="url(#a)" d="m18.021 5.017-.01 4.862-.01 4.862-.464-1.129v-.003l-.602 10.823c.592 1.435.908 2.202.911 2.205s.34.02.747.038c1.23.052 2.757.165 3.917.29.27.028.498.043.515.03.017-.01.02-4.96.017-10.999l-.01-10.979z"/><path fill="url(#b)" d="M8.957 5.003v10.99c0 6.046.007 10.997.017 11.006.01.008.444-.03.968-.078.525-.05 1.248-.113 1.608-.14.551-.04 2.206-.13 2.394-.132.057 0 .06-.246.067-4.657l.01-4.656.4.973.142.344.602-10.82-.205-.5c-.491-1.196-.908-2.206-.925-2.252L14.001 5H8.957z"/><path fill="#E30A17" d="m8.957 5.003 5.061 12.342v-.006l.4.972c2.223 5.415 3.417 8.32 3.424 8.326.003.003.34.02.746.037a67 67 0 0 1 3.918.29c.266.029.498.043.511.032L18 14.738v.003l-.464-1.13-2.583-6.279c-.49-1.195-.908-2.205-.925-2.251L13.995 5h-2.52z"/><defs><linearGradient id="a" x1="25.302" x2="17.282" y1="21.454" y2="24.976" gradientUnits="userSpaceOnUse"><stop stop-color="#B20610"/><stop offset=".256" stop-color="#B20610"/><stop offset="1" stop-color="#590004"/></linearGradient><linearGradient id="b" x1="6.525" x2="15.198" y1="9.822" y2="6.057" gradientUnits="userSpaceOnUse"><stop stop-color="#B20610"/><stop offset=".256" stop-color="#B20610"/><stop offset="1" stop-color="#590004"/></linearGradient></defs></svg>